{"title":"Yogis First Christmas (1980) DVDRip ","uid":9372370,"size":795495424,"categoryP":"video","categoryS":"movies","magnet":"?xt=urn:btih:63aee6640482c3a896b8188ce961b00612885206&amp;dn=Yogis+First+Christmas+%281980%29+DVDRip+&amp;tr=udp%3A%2F%2Ftracker.openbittorrent.com%3A80&amp;tr=udp%3A%2F%2Fopen.demonii.com%3A1337&amp;tr=udp%3A%2F%2Ftracker.coppersurfer.tk%3A6969&amp;tr=udp%3A%2F%2Fexodus.desync.com%3A6969","seeders":1,"leechers":1,"uploader":"7","files":-1,"time":1387555322,"description":"Genre\tFamily, Animation\nActors\tDaws Butler, Don Messick, Janet Waldo\nPlot\tYogi, Boo Boo and Cindy are awakened from hibernation and join their friends' Christmas activities while interfering with 2 villians' efforts to ruin the holiday.\nIMDB link\t\n &lt;a href=&quot;\nhttp://www.imdb.com/title/tt0199161/&quot; rel=&quot;nofollow&quot; target=&quot;_NEW&quot;&gt;\nhttp://www.imdb.com/title/tt0199161/&lt;/a&gt;\n\nGeneral\nComplete name                            : Yogis First Christmas (1980).avi\nFormat                                   : AVI\nFormat/Info                              : Audio Video Interleave\nFile size                                : 759 MiB\nDuration                                 : 1h 39mn\nOverall bit rate                         : 1 071 Kbps\n\nVideo\nID                                       : 0\nFormat                                   : MPEG-4 Visual\nFormat profile                           : Simple@L3\nFormat settings, BVOP                    : No\nFormat settings, QPel                    : No\nFormat settings, GMC                     : No warppoints\nFormat settings, Matrix                  : Default (H.263)\nCodec ID                                 : XVID\nCodec ID/Hint                            : XviD\nDuration                                 : 1h 39mn\nBit rate                                 : 930 Kbps\nWidth                                    : 512 pixels\nHeight                                   : 384 pixels\nDisplay aspect ratio                     : 4:3\nFrame rate                               : 29.970 fps\nOriginal frame rate                      : 29.000 fps\nColor space                              : YUV\nChroma subsampling                       : 4:2:0\nBit depth                                : 8 bits\nScan type                                : Progressive\nCompression mode                         : Lossy\nBits/(Pixel*Frame)                       : 0.158\nStream size                              : 659 MiB (87%)\nWriting library                          : XviD 1.2.1 (UTC 2008-12-04)\n\nAudio\nID                                       : 1\nFormat                                   : MPEG Audio\nFormat version                           : Version 1\nFormat profile                           : Layer 3\nMode                                     : Joint stereo\nMode extension                           : MS Stereo\nCodec ID                                 : 55\nCodec ID/Hint                            : MP3\nDuration                                 : 1h 39mn\nBit rate mode                            : Constant\nBit rate                                 : 128 Kbps\nChannel(s)                               : 2 channels\nSampling rate                            : 44.1 KHz\nCompression mode                         : Lossy\nStream size                              : 90.6 MiB (12%)\nAlignment                                : Aligned on interleaves\nInterleave, duration                     : 26 ms (0.78 video frame)\nWriting library                          : LAME3.98.2\n &lt;a href=&quot;\nhttp://lookpic.com/O/i2/699/7Mrk8Osq.jpeg&quot; rel=&quot;nofollow&quot; target=&quot;_NEW&quot;&gt;\nhttp://lookpic.com/O/i2/699/7Mrk8Osq.jpeg&lt;/a&gt;","torrent":{"xt":"urn:btih:63aee6640482c3a896b8188ce961b00612885206","amp;dn":"Yogis+First+Christmas+%281980%29+DVDRip+","amp;tr":["udp%3A%2F%2Ftracker.openbittorrent.com%3A80","udp%3A%2F%2Fopen.demonii.com%3A1337","udp%3A%2F%2Ftracker.coppersurfer.tk%3A6969","udp%3A%2F%2Fexodus.desync.com%3A6969"],"infoHash":"63aee6640482c3a896b8188ce961b00612885206","infoHashBuffer":{"type":"Buffer","data":[99,174,230,100,4,130,195,168,150,184,24,140,233,97,176,6,18,136,82,6]},"announce":[],"urlList":[]}}